G04 #@! TF.GenerationSoftware,KiCad,Pcbnew,5.1.9-73d0e3b20d~88~ubuntu20.10.1*
G04 #@! TF.CreationDate,2021-09-15T14:03:07-07:00*
G04 #@! TF.ProjectId,led_ring,6c65645f-7269-46e6-972e-6b696361645f,rev?*
G04 #@! TF.SameCoordinates,Original*
G04 #@! TF.FileFunction,Copper,L1,Top*
G04 #@! TF.FilePolarity,Positive*
%FSLAX46Y46*%
G04 Gerber Fmt 4.6, Leading zero omitted, Abs format (unit mm)*
G04 Created by KiCad (PCBNEW 5.1.9-73d0e3b20d~88~ubuntu20.10.1) date 2021-09-15 14:03:07*
%MOMM*%
%LPD*%
G01*
G04 APERTURE LIST*
G04 #@! TA.AperFunction,ComponentPad*
%ADD10C,3.175000*%
G04 #@! TD*
G04 #@! TA.AperFunction,ComponentPad*
%ADD11R,1.700000X1.700000*%
G04 #@! TD*
G04 #@! TA.AperFunction,ComponentPad*
%ADD12O,1.700000X1.700000*%
G04 #@! TD*
G04 #@! TA.AperFunction,ViaPad*
%ADD13C,0.685800*%
G04 #@! TD*
G04 #@! TA.AperFunction,Conductor*
%ADD14C,0.381000*%
G04 #@! TD*
G04 APERTURE END LIST*
D10*
X35800000Y-65800000D03*
X65800000Y-65800000D03*
X65800000Y-35800000D03*
X35800000Y-35800000D03*
G04 #@! TA.AperFunction,SMDPad,CuDef*
G36*
G01*
X60375000Y-51256250D02*
X60375000Y-50343750D01*
G75*
G02*
X60618750Y-50100000I243750J0D01*
G01*
X61106250Y-50100000D01*
G75*
G02*
X61350000Y-50343750I0J-243750D01*
G01*
X61350000Y-51256250D01*
G75*
G02*
X61106250Y-51500000I-243750J0D01*
G01*
X60618750Y-51500000D01*
G75*
G02*
X60375000Y-51256250I0J243750D01*
G01*
G37*
G04 #@! TD.AperFunction*
G04 #@! TA.AperFunction,SMDPad,CuDef*
G36*
G01*
X62250000Y-51256250D02*
X62250000Y-50343750D01*
G75*
G02*
X62493750Y-50100000I243750J0D01*
G01*
X62981250Y-50100000D01*
G75*
G02*
X63225000Y-50343750I0J-243750D01*
G01*
X63225000Y-51256250D01*
G75*
G02*
X62981250Y-51500000I-243750J0D01*
G01*
X62493750Y-51500000D01*
G75*
G02*
X62250000Y-51256250I0J243750D01*
G01*
G37*
G04 #@! TD.AperFunction*
G04 #@! TA.AperFunction,SMDPad,CuDef*
G36*
G01*
X61715509Y-47312625D02*
X61403415Y-46455156D01*
G75*
G02*
X61549098Y-46142739I229050J83367D01*
G01*
X62007198Y-45976004D01*
G75*
G02*
X62319615Y-46121687I83367J-229050D01*
G01*
X62631709Y-46979156D01*
G75*
G02*
X62486026Y-47291573I-229050J-83367D01*
G01*
X62027926Y-47458308D01*
G75*
G02*
X61715509Y-47312625I-83367J229050D01*
G01*
G37*
G04 #@! TD.AperFunction*
G04 #@! TA.AperFunction,SMDPad,CuDef*
G36*
G01*
X59953585Y-47953913D02*
X59641491Y-47096444D01*
G75*
G02*
X59787174Y-46784027I229050J83367D01*
G01*
X60245274Y-46617292D01*
G75*
G02*
X60557691Y-46762975I83367J-229050D01*
G01*
X60869785Y-47620444D01*
G75*
G02*
X60724102Y-47932861I-229050J-83367D01*
G01*
X60266002Y-48099596D01*
G75*
G02*
X59953585Y-47953913I-83367J229050D01*
G01*
G37*
G04 #@! TD.AperFunction*
G04 #@! TA.AperFunction,SMDPad,CuDef*
G36*
G01*
X58428159Y-44994779D02*
X57841615Y-44295764D01*
G75*
G02*
X57871659Y-43952362I186723J156679D01*
G01*
X58245105Y-43639003D01*
G75*
G02*
X58588507Y-43669047I156679J-186723D01*
G01*
X59175051Y-44368062D01*
G75*
G02*
X59145007Y-44711464I-186723J-156679D01*
G01*
X58771561Y-45024823D01*
G75*
G02*
X58428159Y-44994779I-156679J186723D01*
G01*
G37*
G04 #@! TD.AperFunction*
G04 #@! TA.AperFunction,SMDPad,CuDef*
G36*
G01*
X59864493Y-43789553D02*
X59277949Y-43090538D01*
G75*
G02*
X59307993Y-42747136I186723J156679D01*
G01*
X59681439Y-42433777D01*
G75*
G02*
X60024841Y-42463821I156679J-186723D01*
G01*
X60611385Y-43162836D01*
G75*
G02*
X60581341Y-43506238I-186723J-156679D01*
G01*
X60207895Y-43819597D01*
G75*
G02*
X59864493Y-43789553I-156679J186723D01*
G01*
G37*
G04 #@! TD.AperFunction*
G04 #@! TA.AperFunction,SMDPad,CuDef*
G36*
G01*
X56920124Y-41112114D02*
X56129876Y-40655864D01*
G75*
G02*
X56040657Y-40322895I121875J211094D01*
G01*
X56284407Y-39900707D01*
G75*
G02*
X56617376Y-39811488I211094J-121875D01*
G01*
X57407624Y-40267738D01*
G75*
G02*
X57496843Y-40600707I-121875J-211094D01*
G01*
X57253093Y-41022895D01*
G75*
G02*
X56920124Y-41112114I-211094J121875D01*
G01*
G37*
G04 #@! TD.AperFunction*
G04 #@! TA.AperFunction,SMDPad,CuDef*
G36*
G01*
X55982624Y-42735912D02*
X55192376Y-42279662D01*
G75*
G02*
X55103157Y-41946693I121875J211094D01*
G01*
X55346907Y-41524505D01*
G75*
G02*
X55679876Y-41435286I211094J-121875D01*
G01*
X56470124Y-41891536D01*
G75*
G02*
X56559343Y-42224505I-121875J-211094D01*
G01*
X56315593Y-42646693D01*
G75*
G02*
X55982624Y-42735912I-211094J121875D01*
G01*
G37*
G04 #@! TD.AperFunction*
G04 #@! TA.AperFunction,SMDPad,CuDef*
G36*
G01*
X52911970Y-41449678D02*
X52013333Y-41291224D01*
G75*
G02*
X51815613Y-41008850I42327J240047D01*
G01*
X51900266Y-40528756D01*
G75*
G02*
X52182640Y-40331036I240047J-42327D01*
G01*
X53081277Y-40489490D01*
G75*
G02*
X53278997Y-40771864I-42327J-240047D01*
G01*
X53194344Y-41251958D01*
G75*
G02*
X52911970Y-41449678I-240047J42327D01*
G01*
G37*
G04 #@! TD.AperFunction*
G04 #@! TA.AperFunction,SMDPad,CuDef*
G36*
G01*
X53237560Y-39603164D02*
X52338923Y-39444710D01*
G75*
G02*
X52141203Y-39162336I42327J240047D01*
G01*
X52225856Y-38682242D01*
G75*
G02*
X52508230Y-38484522I240047J-42327D01*
G01*
X53406867Y-38642976D01*
G75*
G02*
X53604587Y-38925350I-42327J-240047D01*
G01*
X53519934Y-39405444D01*
G75*
G02*
X53237560Y-39603164I-240047J42327D01*
G01*
G37*
G04 #@! TD.AperFunction*
G04 #@! TA.AperFunction,SMDPad,CuDef*
G36*
G01*
X49261077Y-39444710D02*
X48362440Y-39603164D01*
G75*
G02*
X48080066Y-39405444I-42327J240047D01*
G01*
X47995413Y-38925350D01*
G75*
G02*
X48193133Y-38642976I240047J42327D01*
G01*
X49091770Y-38484522D01*
G75*
G02*
X49374144Y-38682242I42327J-240047D01*
G01*
X49458797Y-39162336D01*
G75*
G02*
X49261077Y-39444710I-240047J-42327D01*
G01*
G37*
G04 #@! TD.AperFunction*
G04 #@! TA.AperFunction,SMDPad,CuDef*
G36*
G01*
X49586667Y-41291224D02*
X48688030Y-41449678D01*
G75*
G02*
X48405656Y-41251958I-42327J240047D01*
G01*
X48321003Y-40771864D01*
G75*
G02*
X48518723Y-40489490I240047J42327D01*
G01*
X49417360Y-40331036D01*
G75*
G02*
X49699734Y-40528756I42327J-240047D01*
G01*
X49784387Y-41008850D01*
G75*
G02*
X49586667Y-41291224I-240047J-42327D01*
G01*
G37*
G04 #@! TD.AperFunction*
G04 #@! TA.AperFunction,SMDPad,CuDef*
G36*
G01*
X46407624Y-42279662D02*
X45617376Y-42735912D01*
G75*
G02*
X45284407Y-42646693I-121875J211094D01*
G01*
X45040657Y-42224505D01*
G75*
G02*
X45129876Y-41891536I211094J121875D01*
G01*
X45920124Y-41435286D01*
G75*
G02*
X46253093Y-41524505I121875J-211094D01*
G01*
X46496843Y-41946693D01*
G75*
G02*
X46407624Y-42279662I-211094J-121875D01*
G01*
G37*
G04 #@! TD.AperFunction*
G04 #@! TA.AperFunction,SMDPad,CuDef*
G36*
G01*
X45470124Y-40655864D02*
X44679876Y-41112114D01*
G75*
G02*
X44346907Y-41022895I-121875J211094D01*
G01*
X44103157Y-40600707D01*
G75*
G02*
X44192376Y-40267738I211094J121875D01*
G01*
X44982624Y-39811488D01*
G75*
G02*
X45315593Y-39900707I121875J-211094D01*
G01*
X45559343Y-40322895D01*
G75*
G02*
X45470124Y-40655864I-211094J-121875D01*
G01*
G37*
G04 #@! TD.AperFunction*
G04 #@! TA.AperFunction,SMDPad,CuDef*
G36*
G01*
X42322051Y-43090538D02*
X41735507Y-43789553D01*
G75*
G02*
X41392105Y-43819597I-186723J156679D01*
G01*
X41018659Y-43506238D01*
G75*
G02*
X40988615Y-43162836I156679J186723D01*
G01*
X41575159Y-42463821D01*
G75*
G02*
X41918561Y-42433777I186723J-156679D01*
G01*
X42292007Y-42747136D01*
G75*
G02*
X42322051Y-43090538I-156679J-186723D01*
G01*
G37*
G04 #@! TD.AperFunction*
G04 #@! TA.AperFunction,SMDPad,CuDef*
G36*
G01*
X43758385Y-44295764D02*
X43171841Y-44994779D01*
G75*
G02*
X42828439Y-45024823I-186723J156679D01*
G01*
X42454993Y-44711464D01*
G75*
G02*
X42424949Y-44368062I156679J186723D01*
G01*
X43011493Y-43669047D01*
G75*
G02*
X43354895Y-43639003I186723J-156679D01*
G01*
X43728341Y-43952362D01*
G75*
G02*
X43758385Y-44295764I-156679J-186723D01*
G01*
G37*
G04 #@! TD.AperFunction*
G04 #@! TA.AperFunction,SMDPad,CuDef*
G36*
G01*
X41958509Y-47096444D02*
X41646415Y-47953913D01*
G75*
G02*
X41333998Y-48099596I-229050J83367D01*
G01*
X40875898Y-47932861D01*
G75*
G02*
X40730215Y-47620444I83367J229050D01*
G01*
X41042309Y-46762975D01*
G75*
G02*
X41354726Y-46617292I229050J-83367D01*
G01*
X41812826Y-46784027D01*
G75*
G02*
X41958509Y-47096444I-83367J-229050D01*
G01*
G37*
G04 #@! TD.AperFunction*
G04 #@! TA.AperFunction,SMDPad,CuDef*
G36*
G01*
X40196585Y-46455156D02*
X39884491Y-47312625D01*
G75*
G02*
X39572074Y-47458308I-229050J83367D01*
G01*
X39113974Y-47291573D01*
G75*
G02*
X38968291Y-46979156I83367J229050D01*
G01*
X39280385Y-46121687D01*
G75*
G02*
X39592802Y-45976004I229050J-83367D01*
G01*
X40050902Y-46142739D01*
G75*
G02*
X40196585Y-46455156I-83367J-229050D01*
G01*
G37*
G04 #@! TD.AperFunction*
G04 #@! TA.AperFunction,SMDPad,CuDef*
G36*
G01*
X39350000Y-50343750D02*
X39350000Y-51256250D01*
G75*
G02*
X39106250Y-51500000I-243750J0D01*
G01*
X38618750Y-51500000D01*
G75*
G02*
X38375000Y-51256250I0J243750D01*
G01*
X38375000Y-50343750D01*
G75*
G02*
X38618750Y-50100000I243750J0D01*
G01*
X39106250Y-50100000D01*
G75*
G02*
X39350000Y-50343750I0J-243750D01*
G01*
G37*
G04 #@! TD.AperFunction*
G04 #@! TA.AperFunction,SMDPad,CuDef*
G36*
G01*
X41225000Y-50343750D02*
X41225000Y-51256250D01*
G75*
G02*
X40981250Y-51500000I-243750J0D01*
G01*
X40493750Y-51500000D01*
G75*
G02*
X40250000Y-51256250I0J243750D01*
G01*
X40250000Y-50343750D01*
G75*
G02*
X40493750Y-50100000I243750J0D01*
G01*
X40981250Y-50100000D01*
G75*
G02*
X41225000Y-50343750I0J-243750D01*
G01*
G37*
G04 #@! TD.AperFunction*
G04 #@! TA.AperFunction,SMDPad,CuDef*
G36*
G01*
X41646415Y-53646087D02*
X41958509Y-54503556D01*
G75*
G02*
X41812826Y-54815973I-229050J-83367D01*
G01*
X41354726Y-54982708D01*
G75*
G02*
X41042309Y-54837025I-83367J229050D01*
G01*
X40730215Y-53979556D01*
G75*
G02*
X40875898Y-53667139I229050J83367D01*
G01*
X41333998Y-53500404D01*
G75*
G02*
X41646415Y-53646087I83367J-229050D01*
G01*
G37*
G04 #@! TD.AperFunction*
G04 #@! TA.AperFunction,SMDPad,CuDef*
G36*
G01*
X39884491Y-54287375D02*
X40196585Y-55144844D01*
G75*
G02*
X40050902Y-55457261I-229050J-83367D01*
G01*
X39592802Y-55623996D01*
G75*
G02*
X39280385Y-55478313I-83367J229050D01*
G01*
X38968291Y-54620844D01*
G75*
G02*
X39113974Y-54308427I229050J83367D01*
G01*
X39572074Y-54141692D01*
G75*
G02*
X39884491Y-54287375I83367J-229050D01*
G01*
G37*
G04 #@! TD.AperFunction*
G04 #@! TA.AperFunction,SMDPad,CuDef*
G36*
G01*
X41735507Y-57810447D02*
X42322051Y-58509462D01*
G75*
G02*
X42292007Y-58852864I-186723J-156679D01*
G01*
X41918561Y-59166223D01*
G75*
G02*
X41575159Y-59136179I-156679J186723D01*
G01*
X40988615Y-58437164D01*
G75*
G02*
X41018659Y-58093762I186723J156679D01*
G01*
X41392105Y-57780403D01*
G75*
G02*
X41735507Y-57810447I156679J-186723D01*
G01*
G37*
G04 #@! TD.AperFunction*
G04 #@! TA.AperFunction,SMDPad,CuDef*
G36*
G01*
X43171841Y-56605221D02*
X43758385Y-57304236D01*
G75*
G02*
X43728341Y-57647638I-186723J-156679D01*
G01*
X43354895Y-57960997D01*
G75*
G02*
X43011493Y-57930953I-156679J186723D01*
G01*
X42424949Y-57231938D01*
G75*
G02*
X42454993Y-56888536I186723J156679D01*
G01*
X42828439Y-56575177D01*
G75*
G02*
X43171841Y-56605221I156679J-186723D01*
G01*
G37*
G04 #@! TD.AperFunction*
G04 #@! TA.AperFunction,SMDPad,CuDef*
G36*
G01*
X45617376Y-58864088D02*
X46407624Y-59320338D01*
G75*
G02*
X46496843Y-59653307I-121875J-211094D01*
G01*
X46253093Y-60075495D01*
G75*
G02*
X45920124Y-60164714I-211094J121875D01*
G01*
X45129876Y-59708464D01*
G75*
G02*
X45040657Y-59375495I121875J211094D01*
G01*
X45284407Y-58953307D01*
G75*
G02*
X45617376Y-58864088I211094J-121875D01*
G01*
G37*
G04 #@! TD.AperFunction*
G04 #@! TA.AperFunction,SMDPad,CuDef*
G36*
G01*
X44679876Y-60487886D02*
X45470124Y-60944136D01*
G75*
G02*
X45559343Y-61277105I-121875J-211094D01*
G01*
X45315593Y-61699293D01*
G75*
G02*
X44982624Y-61788512I-211094J121875D01*
G01*
X44192376Y-61332262D01*
G75*
G02*
X44103157Y-60999293I121875J211094D01*
G01*
X44346907Y-60577105D01*
G75*
G02*
X44679876Y-60487886I211094J-121875D01*
G01*
G37*
G04 #@! TD.AperFunction*
G04 #@! TA.AperFunction,SMDPad,CuDef*
G36*
G01*
X48362440Y-61996836D02*
X49261077Y-62155290D01*
G75*
G02*
X49458797Y-62437664I-42327J-240047D01*
G01*
X49374144Y-62917758D01*
G75*
G02*
X49091770Y-63115478I-240047J42327D01*
G01*
X48193133Y-62957024D01*
G75*
G02*
X47995413Y-62674650I42327J240047D01*
G01*
X48080066Y-62194556D01*
G75*
G02*
X48362440Y-61996836I240047J-42327D01*
G01*
G37*
G04 #@! TD.AperFunction*
G04 #@! TA.AperFunction,SMDPad,CuDef*
G36*
G01*
X48688030Y-60150322D02*
X49586667Y-60308776D01*
G75*
G02*
X49784387Y-60591150I-42327J-240047D01*
G01*
X49699734Y-61071244D01*
G75*
G02*
X49417360Y-61268964I-240047J42327D01*
G01*
X48518723Y-61110510D01*
G75*
G02*
X48321003Y-60828136I42327J240047D01*
G01*
X48405656Y-60348042D01*
G75*
G02*
X48688030Y-60150322I240047J-42327D01*
G01*
G37*
G04 #@! TD.AperFunction*
G04 #@! TA.AperFunction,SMDPad,CuDef*
G36*
G01*
X52013333Y-60308776D02*
X52911970Y-60150322D01*
G75*
G02*
X53194344Y-60348042I42327J-240047D01*
G01*
X53278997Y-60828136D01*
G75*
G02*
X53081277Y-61110510I-240047J-42327D01*
G01*
X52182640Y-61268964D01*
G75*
G02*
X51900266Y-61071244I-42327J240047D01*
G01*
X51815613Y-60591150D01*
G75*
G02*
X52013333Y-60308776I240047J42327D01*
G01*
G37*
G04 #@! TD.AperFunction*
G04 #@! TA.AperFunction,SMDPad,CuDef*
G36*
G01*
X52338923Y-62155290D02*
X53237560Y-61996836D01*
G75*
G02*
X53519934Y-62194556I42327J-240047D01*
G01*
X53604587Y-62674650D01*
G75*
G02*
X53406867Y-62957024I-240047J-42327D01*
G01*
X52508230Y-63115478D01*
G75*
G02*
X52225856Y-62917758I-42327J240047D01*
G01*
X52141203Y-62437664D01*
G75*
G02*
X52338923Y-62155290I240047J42327D01*
G01*
G37*
G04 #@! TD.AperFunction*
G04 #@! TA.AperFunction,SMDPad,CuDef*
G36*
G01*
X56129876Y-60944136D02*
X56920124Y-60487886D01*
G75*
G02*
X57253093Y-60577105I121875J-211094D01*
G01*
X57496843Y-60999293D01*
G75*
G02*
X57407624Y-61332262I-211094J-121875D01*
G01*
X56617376Y-61788512D01*
G75*
G02*
X56284407Y-61699293I-121875J211094D01*
G01*
X56040657Y-61277105D01*
G75*
G02*
X56129876Y-60944136I211094J121875D01*
G01*
G37*
G04 #@! TD.AperFunction*
G04 #@! TA.AperFunction,SMDPad,CuDef*
G36*
G01*
X55192376Y-59320338D02*
X55982624Y-58864088D01*
G75*
G02*
X56315593Y-58953307I121875J-211094D01*
G01*
X56559343Y-59375495D01*
G75*
G02*
X56470124Y-59708464I-211094J-121875D01*
G01*
X55679876Y-60164714D01*
G75*
G02*
X55346907Y-60075495I-121875J211094D01*
G01*
X55103157Y-59653307D01*
G75*
G02*
X55192376Y-59320338I211094J121875D01*
G01*
G37*
G04 #@! TD.AperFunction*
G04 #@! TA.AperFunction,SMDPad,CuDef*
G36*
G01*
X57841615Y-57304236D02*
X58428159Y-56605221D01*
G75*
G02*
X58771561Y-56575177I186723J-156679D01*
G01*
X59145007Y-56888536D01*
G75*
G02*
X59175051Y-57231938I-156679J-186723D01*
G01*
X58588507Y-57930953D01*
G75*
G02*
X58245105Y-57960997I-186723J156679D01*
G01*
X57871659Y-57647638D01*
G75*
G02*
X57841615Y-57304236I156679J186723D01*
G01*
G37*
G04 #@! TD.AperFunction*
G04 #@! TA.AperFunction,SMDPad,CuDef*
G36*
G01*
X59277949Y-58509462D02*
X59864493Y-57810447D01*
G75*
G02*
X60207895Y-57780403I186723J-156679D01*
G01*
X60581341Y-58093762D01*
G75*
G02*
X60611385Y-58437164I-156679J-186723D01*
G01*
X60024841Y-59136179D01*
G75*
G02*
X59681439Y-59166223I-186723J156679D01*
G01*
X59307993Y-58852864D01*
G75*
G02*
X59277949Y-58509462I156679J186723D01*
G01*
G37*
G04 #@! TD.AperFunction*
G04 #@! TA.AperFunction,SMDPad,CuDef*
G36*
G01*
X61403415Y-55144844D02*
X61715509Y-54287375D01*
G75*
G02*
X62027926Y-54141692I229050J-83367D01*
G01*
X62486026Y-54308427D01*
G75*
G02*
X62631709Y-54620844I-83367J-229050D01*
G01*
X62319615Y-55478313D01*
G75*
G02*
X62007198Y-55623996I-229050J83367D01*
G01*
X61549098Y-55457261D01*
G75*
G02*
X61403415Y-55144844I83367J229050D01*
G01*
G37*
G04 #@! TD.AperFunction*
G04 #@! TA.AperFunction,SMDPad,CuDef*
G36*
G01*
X59641491Y-54503556D02*
X59953585Y-53646087D01*
G75*
G02*
X60266002Y-53500404I229050J-83367D01*
G01*
X60724102Y-53667139D01*
G75*
G02*
X60869785Y-53979556I-83367J-229050D01*
G01*
X60557691Y-54837025D01*
G75*
G02*
X60245274Y-54982708I-229050J83367D01*
G01*
X59787174Y-54815973D01*
G75*
G02*
X59641491Y-54503556I83367J229050D01*
G01*
G37*
G04 #@! TD.AperFunction*
D11*
X34900000Y-51700000D03*
D12*
X34900000Y-49160000D03*
G04 #@! TA.AperFunction,SMDPad,CuDef*
G36*
G01*
X41375000Y-66250001D02*
X41375000Y-65349999D01*
G75*
G02*
X41624999Y-65100000I249999J0D01*
G01*
X42150001Y-65100000D01*
G75*
G02*
X42400000Y-65349999I0J-249999D01*
G01*
X42400000Y-66250001D01*
G75*
G02*
X42150001Y-66500000I-249999J0D01*
G01*
X41624999Y-66500000D01*
G75*
G02*
X41375000Y-66250001I0J249999D01*
G01*
G37*
G04 #@! TD.AperFunction*
G04 #@! TA.AperFunction,SMDPad,CuDef*
G36*
G01*
X43200000Y-66250001D02*
X43200000Y-65349999D01*
G75*
G02*
X43449999Y-65100000I249999J0D01*
G01*
X43975001Y-65100000D01*
G75*
G02*
X44225000Y-65349999I0J-249999D01*
G01*
X44225000Y-66250001D01*
G75*
G02*
X43975001Y-66500000I-249999J0D01*
G01*
X43449999Y-66500000D01*
G75*
G02*
X43200000Y-66250001I0J249999D01*
G01*
G37*
G04 #@! TD.AperFunction*
G04 #@! TA.AperFunction,SMDPad,CuDef*
G36*
G01*
X43200000Y-36250001D02*
X43200000Y-35349999D01*
G75*
G02*
X43449999Y-35100000I249999J0D01*
G01*
X43975001Y-35100000D01*
G75*
G02*
X44225000Y-35349999I0J-249999D01*
G01*
X44225000Y-36250001D01*
G75*
G02*
X43975001Y-36500000I-249999J0D01*
G01*
X43449999Y-36500000D01*
G75*
G02*
X43200000Y-36250001I0J249999D01*
G01*
G37*
G04 #@! TD.AperFunction*
G04 #@! TA.AperFunction,SMDPad,CuDef*
G36*
G01*
X41375000Y-36250001D02*
X41375000Y-35349999D01*
G75*
G02*
X41624999Y-35100000I249999J0D01*
G01*
X42150001Y-35100000D01*
G75*
G02*
X42400000Y-35349999I0J-249999D01*
G01*
X42400000Y-36250001D01*
G75*
G02*
X42150001Y-36500000I-249999J0D01*
G01*
X41624999Y-36500000D01*
G75*
G02*
X41375000Y-36250001I0J249999D01*
G01*
G37*
G04 #@! TD.AperFunction*
G04 #@! TA.AperFunction,SMDPad,CuDef*
G36*
G01*
X66250001Y-60225000D02*
X65349999Y-60225000D01*
G75*
G02*
X65100000Y-59975001I0J249999D01*
G01*
X65100000Y-59449999D01*
G75*
G02*
X65349999Y-59200000I249999J0D01*
G01*
X66250001Y-59200000D01*
G75*
G02*
X66500000Y-59449999I0J-249999D01*
G01*
X66500000Y-59975001D01*
G75*
G02*
X66250001Y-60225000I-249999J0D01*
G01*
G37*
G04 #@! TD.AperFunction*
G04 #@! TA.AperFunction,SMDPad,CuDef*
G36*
G01*
X66250001Y-58400000D02*
X65349999Y-58400000D01*
G75*
G02*
X65100000Y-58150001I0J249999D01*
G01*
X65100000Y-57624999D01*
G75*
G02*
X65349999Y-57375000I249999J0D01*
G01*
X66250001Y-57375000D01*
G75*
G02*
X66500000Y-57624999I0J-249999D01*
G01*
X66500000Y-58150001D01*
G75*
G02*
X66250001Y-58400000I-249999J0D01*
G01*
G37*
G04 #@! TD.AperFunction*
D13*
X42831100Y-40588000D03*
X44685600Y-62679000D03*
X64103000Y-50799500D03*
D14*
X62017600Y-46717200D02*
X62017600Y-48346700D01*
X62017600Y-48346700D02*
X60862500Y-49501800D01*
X60862500Y-49501800D02*
X60862500Y-50800000D01*
X42831100Y-40588000D02*
X44705100Y-40588000D01*
X44705100Y-40588000D02*
X44831300Y-40461800D01*
X44831200Y-61138200D02*
X44831200Y-62533400D01*
X44831200Y-62533400D02*
X44685600Y-62679000D01*
X64103000Y-50799500D02*
X62738000Y-50799500D01*
X62738000Y-50799500D02*
X62737500Y-50800000D01*
X60255600Y-47358400D02*
X60255600Y-43437600D01*
X60255600Y-43437600D02*
X59944700Y-43126700D01*
X56768800Y-40461800D02*
X58508300Y-42201300D01*
X58508300Y-42201300D02*
X58508300Y-44331900D01*
X55831200Y-42085600D02*
X52872900Y-39127300D01*
X52872900Y-39127300D02*
X52872900Y-39043800D01*
X48727100Y-39043800D02*
X50700700Y-39043800D01*
X50700700Y-39043800D02*
X52547300Y-40890400D01*
X43712500Y-35800000D02*
X43712500Y-36171200D01*
X43712500Y-36171200D02*
X48431700Y-40890400D01*
X48431700Y-40890400D02*
X49052700Y-40890400D01*
X41655300Y-43126700D02*
X42696400Y-42085600D01*
X42696400Y-42085600D02*
X45768700Y-42085600D01*
X43091700Y-44331900D02*
X41731000Y-45692600D01*
X41731000Y-45692600D02*
X40607000Y-45692600D01*
X40607000Y-45692600D02*
X39582400Y-46717200D01*
X38862500Y-50800000D02*
X38862500Y-49840300D01*
X38862500Y-49840300D02*
X41344400Y-47358400D01*
X40737500Y-50800000D02*
X40737500Y-51478000D01*
X40737500Y-51478000D02*
X39582400Y-52633100D01*
X39582400Y-52633100D02*
X39582400Y-54882800D01*
X41655300Y-58473300D02*
X41344400Y-58162400D01*
X41344400Y-58162400D02*
X41344400Y-54241600D01*
X43712500Y-65800000D02*
X43316600Y-65404100D01*
X43316600Y-65404100D02*
X43316600Y-57493000D01*
X43316600Y-57493000D02*
X43091700Y-57268100D01*
X48727100Y-62556200D02*
X45768800Y-59597900D01*
X45768800Y-59597900D02*
X45768800Y-59514400D01*
X52872900Y-62556200D02*
X50899300Y-62556200D01*
X50899300Y-62556200D02*
X49052700Y-60709600D01*
X56768800Y-61138200D02*
X52975900Y-61138200D01*
X52975900Y-61138200D02*
X52547300Y-60709600D01*
X55831200Y-59514400D02*
X58903600Y-59514400D01*
X58903600Y-59514400D02*
X59944700Y-58473300D01*
X62017600Y-54882800D02*
X60789100Y-56111300D01*
X60789100Y-56111300D02*
X59665100Y-56111300D01*
X59665100Y-56111300D02*
X58508300Y-57268100D01*
X65800000Y-57887500D02*
X65800000Y-56556700D01*
X65800000Y-56556700D02*
X62652500Y-53409200D01*
X62652500Y-53409200D02*
X61088000Y-53409200D01*
X61088000Y-53409200D02*
X60255600Y-54241600D01*
X41887500Y-35800000D02*
X37460700Y-40226800D01*
X37460700Y-40226800D02*
X37460700Y-49139300D01*
X37460700Y-49139300D02*
X34900000Y-51700000D01*
X41887500Y-65800000D02*
X34900000Y-58812500D01*
X34900000Y-58812500D02*
X34900000Y-51700000D01*
X65800000Y-59712500D02*
X58290300Y-67222200D01*
X58290300Y-67222200D02*
X43028700Y-67222200D01*
X43028700Y-67222200D02*
X41887500Y-66081000D01*
X41887500Y-66081000D02*
X41887500Y-65800000D01*
M02*
