G04 #@! TF.GenerationSoftware,KiCad,Pcbnew,5.1.9-73d0e3b20d~88~ubuntu20.10.1*
G04 #@! TF.CreationDate,2021-09-15T14:45:45-07:00*
G04 #@! TF.ProjectId,led_ring,6c65645f-7269-46e6-972e-6b696361645f,rev?*
G04 #@! TF.SameCoordinates,Original*
G04 #@! TF.FileFunction,Legend,Bot*
G04 #@! TF.FilePolarity,Positive*
%FSLAX46Y46*%
G04 Gerber Fmt 4.6, Leading zero omitted, Abs format (unit mm)*
G04 Created by KiCad (PCBNEW 5.1.9-73d0e3b20d~88~ubuntu20.10.1) date 2021-09-15 14:45:45*
%MOMM*%
%LPD*%
G01*
G04 APERTURE LIST*
%ADD10C,0.150000*%
%ADD11C,0.120000*%
G04 APERTURE END LIST*
D10*
X67571428Y-62027380D02*
X67904761Y-61551190D01*
X68142857Y-62027380D02*
X68142857Y-61027380D01*
X67761904Y-61027380D01*
X67666666Y-61075000D01*
X67619047Y-61122619D01*
X67571428Y-61217857D01*
X67571428Y-61360714D01*
X67619047Y-61455952D01*
X67666666Y-61503571D01*
X67761904Y-61551190D01*
X68142857Y-61551190D01*
X67142857Y-62027380D02*
X67142857Y-61360714D01*
X67142857Y-61027380D02*
X67190476Y-61075000D01*
X67142857Y-61122619D01*
X67095238Y-61075000D01*
X67142857Y-61027380D01*
X67142857Y-61122619D01*
X66666666Y-61360714D02*
X66666666Y-62027380D01*
X66666666Y-61455952D02*
X66619047Y-61408333D01*
X66523809Y-61360714D01*
X66380952Y-61360714D01*
X66285714Y-61408333D01*
X66238095Y-61503571D01*
X66238095Y-62027380D01*
X65333333Y-61360714D02*
X65333333Y-62170238D01*
X65380952Y-62265476D01*
X65428571Y-62313095D01*
X65523809Y-62360714D01*
X65666666Y-62360714D01*
X65761904Y-62313095D01*
X65333333Y-61979761D02*
X65428571Y-62027380D01*
X65619047Y-62027380D01*
X65714285Y-61979761D01*
X65761904Y-61932142D01*
X65809523Y-61836904D01*
X65809523Y-61551190D01*
X65761904Y-61455952D01*
X65714285Y-61408333D01*
X65619047Y-61360714D01*
X65428571Y-61360714D01*
X65333333Y-61408333D01*
X63619047Y-62027380D02*
X64095238Y-62027380D01*
X64095238Y-61027380D01*
X63285714Y-62027380D02*
X63285714Y-61360714D01*
X63285714Y-61027380D02*
X63333333Y-61075000D01*
X63285714Y-61122619D01*
X63238095Y-61075000D01*
X63285714Y-61027380D01*
X63285714Y-61122619D01*
X62380952Y-61360714D02*
X62380952Y-62170238D01*
X62428571Y-62265476D01*
X62476190Y-62313095D01*
X62571428Y-62360714D01*
X62714285Y-62360714D01*
X62809523Y-62313095D01*
X62380952Y-61979761D02*
X62476190Y-62027380D01*
X62666666Y-62027380D01*
X62761904Y-61979761D01*
X62809523Y-61932142D01*
X62857142Y-61836904D01*
X62857142Y-61551190D01*
X62809523Y-61455952D01*
X62761904Y-61408333D01*
X62666666Y-61360714D01*
X62476190Y-61360714D01*
X62380952Y-61408333D01*
X61904761Y-62027380D02*
X61904761Y-61027380D01*
X61476190Y-62027380D02*
X61476190Y-61503571D01*
X61523809Y-61408333D01*
X61619047Y-61360714D01*
X61761904Y-61360714D01*
X61857142Y-61408333D01*
X61904761Y-61455952D01*
X61142857Y-61360714D02*
X60761904Y-61360714D01*
X61000000Y-61027380D02*
X61000000Y-61884523D01*
X60952380Y-61979761D01*
X60857142Y-62027380D01*
X60761904Y-62027380D01*
X59142857Y-62027380D02*
X59714285Y-62027380D01*
X59428571Y-62027380D02*
X59428571Y-61027380D01*
X59523809Y-61170238D01*
X59619047Y-61265476D01*
X59714285Y-61313095D01*
X58809523Y-61027380D02*
X58142857Y-61027380D01*
X58571428Y-62027380D01*
X57761904Y-62027380D02*
X57761904Y-61360714D01*
X57761904Y-61455952D02*
X57714285Y-61408333D01*
X57619047Y-61360714D01*
X57476190Y-61360714D01*
X57380952Y-61408333D01*
X57333333Y-61503571D01*
X57333333Y-62027380D01*
X57333333Y-61503571D02*
X57285714Y-61408333D01*
X57190476Y-61360714D01*
X57047619Y-61360714D01*
X56952380Y-61408333D01*
X56904761Y-61503571D01*
X56904761Y-62027380D01*
X56428571Y-62027380D02*
X56428571Y-61360714D01*
X56428571Y-61455952D02*
X56380952Y-61408333D01*
X56285714Y-61360714D01*
X56142857Y-61360714D01*
X56047619Y-61408333D01*
X56000000Y-61503571D01*
X56000000Y-62027380D01*
X56000000Y-61503571D02*
X55952380Y-61408333D01*
X55857142Y-61360714D01*
X55714285Y-61360714D01*
X55619047Y-61408333D01*
X55571428Y-61503571D01*
X55571428Y-62027380D01*
X54333333Y-62027380D02*
X54333333Y-61027380D01*
X53857142Y-62027380D02*
X53857142Y-61027380D01*
X53619047Y-61027380D01*
X53476190Y-61075000D01*
X53380952Y-61170238D01*
X53333333Y-61265476D01*
X53285714Y-61455952D01*
X53285714Y-61598809D01*
X53333333Y-61789285D01*
X53380952Y-61884523D01*
X53476190Y-61979761D01*
X53619047Y-62027380D01*
X53857142Y-62027380D01*
X52809523Y-61979761D02*
X52809523Y-62027380D01*
X52857142Y-62122619D01*
X52904761Y-62170238D01*
X51095238Y-62027380D02*
X51666666Y-62027380D01*
X51380952Y-62027380D02*
X51380952Y-61027380D01*
X51476190Y-61170238D01*
X51571428Y-61265476D01*
X51666666Y-61313095D01*
X49333333Y-62027380D02*
X49666666Y-61551190D01*
X49904761Y-62027380D02*
X49904761Y-61027380D01*
X49523809Y-61027380D01*
X49428571Y-61075000D01*
X49380952Y-61122619D01*
X49333333Y-61217857D01*
X49333333Y-61360714D01*
X49380952Y-61455952D01*
X49428571Y-61503571D01*
X49523809Y-61551190D01*
X49904761Y-61551190D01*
X48761904Y-62027380D02*
X48857142Y-61979761D01*
X48904761Y-61932142D01*
X48952380Y-61836904D01*
X48952380Y-61551190D01*
X48904761Y-61455952D01*
X48857142Y-61408333D01*
X48761904Y-61360714D01*
X48619047Y-61360714D01*
X48523809Y-61408333D01*
X48476190Y-61455952D01*
X48428571Y-61551190D01*
X48428571Y-61836904D01*
X48476190Y-61932142D01*
X48523809Y-61979761D01*
X48619047Y-62027380D01*
X48761904Y-62027380D01*
X48095238Y-61360714D02*
X47904761Y-62027380D01*
X47714285Y-61551190D01*
X47523809Y-62027380D01*
X47333333Y-61360714D01*
X46904761Y-61979761D02*
X46904761Y-62027380D01*
X46952380Y-62122619D01*
X47000000Y-62170238D01*
X45190476Y-62027380D02*
X45761904Y-62027380D01*
X45476190Y-62027380D02*
X45476190Y-61027380D01*
X45571428Y-61170238D01*
X45666666Y-61265476D01*
X45761904Y-61313095D01*
X44619047Y-61455952D02*
X44714285Y-61408333D01*
X44761904Y-61360714D01*
X44809523Y-61265476D01*
X44809523Y-61217857D01*
X44761904Y-61122619D01*
X44714285Y-61075000D01*
X44619047Y-61027380D01*
X44428571Y-61027380D01*
X44333333Y-61075000D01*
X44285714Y-61122619D01*
X44238095Y-61217857D01*
X44238095Y-61265476D01*
X44285714Y-61360714D01*
X44333333Y-61408333D01*
X44428571Y-61455952D01*
X44619047Y-61455952D01*
X44714285Y-61503571D01*
X44761904Y-61551190D01*
X44809523Y-61646428D01*
X44809523Y-61836904D01*
X44761904Y-61932142D01*
X44714285Y-61979761D01*
X44619047Y-62027380D01*
X44428571Y-62027380D01*
X44333333Y-61979761D01*
X44285714Y-61932142D01*
X44238095Y-61836904D01*
X44238095Y-61646428D01*
X44285714Y-61551190D01*
X44333333Y-61503571D01*
X44428571Y-61455952D01*
X42571428Y-62027380D02*
X43047619Y-62027380D01*
X43047619Y-61027380D01*
X42238095Y-61503571D02*
X41904761Y-61503571D01*
X41761904Y-62027380D02*
X42238095Y-62027380D01*
X42238095Y-61027380D01*
X41761904Y-61027380D01*
X41333333Y-62027380D02*
X41333333Y-61027380D01*
X41095238Y-61027380D01*
X40952380Y-61075000D01*
X40857142Y-61170238D01*
X40809523Y-61265476D01*
X40761904Y-61455952D01*
X40761904Y-61598809D01*
X40809523Y-61789285D01*
X40857142Y-61884523D01*
X40952380Y-61979761D01*
X41095238Y-62027380D01*
X41333333Y-62027380D01*
X39285714Y-62408333D02*
X39333333Y-62360714D01*
X39428571Y-62217857D01*
X39476190Y-62122619D01*
X39523809Y-61979761D01*
X39571428Y-61741666D01*
X39571428Y-61551190D01*
X39523809Y-61313095D01*
X39476190Y-61170238D01*
X39428571Y-61075000D01*
X39333333Y-60932142D01*
X39285714Y-60884523D01*
X39000000Y-61360714D02*
X38809523Y-62027380D01*
X38619047Y-61551190D01*
X38428571Y-62027380D01*
X38238095Y-61360714D01*
X37857142Y-62027380D02*
X37857142Y-61027380D01*
X37428571Y-62027380D02*
X37428571Y-61503571D01*
X37476190Y-61408333D01*
X37571428Y-61360714D01*
X37714285Y-61360714D01*
X37809523Y-61408333D01*
X37857142Y-61455952D01*
X36952380Y-62027380D02*
X36952380Y-61360714D01*
X36952380Y-61027380D02*
X37000000Y-61075000D01*
X36952380Y-61122619D01*
X36904761Y-61075000D01*
X36952380Y-61027380D01*
X36952380Y-61122619D01*
X36619047Y-61360714D02*
X36238095Y-61360714D01*
X36476190Y-61027380D02*
X36476190Y-61884523D01*
X36428571Y-61979761D01*
X36333333Y-62027380D01*
X36238095Y-62027380D01*
X35523809Y-61979761D02*
X35619047Y-62027380D01*
X35809523Y-62027380D01*
X35904761Y-61979761D01*
X35952380Y-61884523D01*
X35952380Y-61503571D01*
X35904761Y-61408333D01*
X35809523Y-61360714D01*
X35619047Y-61360714D01*
X35523809Y-61408333D01*
X35476190Y-61503571D01*
X35476190Y-61598809D01*
X35952380Y-61694047D01*
X35142857Y-62408333D02*
X35095238Y-62360714D01*
X35000000Y-62217857D01*
X34952380Y-62122619D01*
X34904761Y-61979761D01*
X34857142Y-61741666D01*
X34857142Y-61551190D01*
X34904761Y-61313095D01*
X34952380Y-61170238D01*
X35000000Y-61075000D01*
X35095238Y-60932142D01*
X35142857Y-60884523D01*
X58809523Y-63677380D02*
X58809523Y-62677380D01*
X58571428Y-62677380D01*
X58428571Y-62725000D01*
X58333333Y-62820238D01*
X58285714Y-62915476D01*
X58238095Y-63105952D01*
X58238095Y-63248809D01*
X58285714Y-63439285D01*
X58333333Y-63534523D01*
X58428571Y-63629761D01*
X58571428Y-63677380D01*
X58809523Y-63677380D01*
X57809523Y-63677380D02*
X57809523Y-63010714D01*
X57809523Y-62677380D02*
X57857142Y-62725000D01*
X57809523Y-62772619D01*
X57761904Y-62725000D01*
X57809523Y-62677380D01*
X57809523Y-62772619D01*
X56904761Y-63629761D02*
X57000000Y-63677380D01*
X57190476Y-63677380D01*
X57285714Y-63629761D01*
X57333333Y-63582142D01*
X57380952Y-63486904D01*
X57380952Y-63201190D01*
X57333333Y-63105952D01*
X57285714Y-63058333D01*
X57190476Y-63010714D01*
X57000000Y-63010714D01*
X56904761Y-63058333D01*
X56476190Y-63677380D02*
X56476190Y-62677380D01*
X56380952Y-63296428D02*
X56095238Y-63677380D01*
X56095238Y-63010714D02*
X56476190Y-63391666D01*
X55666666Y-63677380D02*
X55666666Y-63010714D01*
X55666666Y-62677380D02*
X55714285Y-62725000D01*
X55666666Y-62772619D01*
X55619047Y-62725000D01*
X55666666Y-62677380D01*
X55666666Y-62772619D01*
X55190476Y-63010714D02*
X55190476Y-63677380D01*
X55190476Y-63105952D02*
X55142857Y-63058333D01*
X55047619Y-63010714D01*
X54904761Y-63010714D01*
X54809523Y-63058333D01*
X54761904Y-63153571D01*
X54761904Y-63677380D01*
X54333333Y-63629761D02*
X54238095Y-63677380D01*
X54047619Y-63677380D01*
X53952380Y-63629761D01*
X53904761Y-63534523D01*
X53904761Y-63486904D01*
X53952380Y-63391666D01*
X54047619Y-63344047D01*
X54190476Y-63344047D01*
X54285714Y-63296428D01*
X54333333Y-63201190D01*
X54333333Y-63153571D01*
X54285714Y-63058333D01*
X54190476Y-63010714D01*
X54047619Y-63010714D01*
X53952380Y-63058333D01*
X53333333Y-63677380D02*
X53428571Y-63629761D01*
X53476190Y-63582142D01*
X53523809Y-63486904D01*
X53523809Y-63201190D01*
X53476190Y-63105952D01*
X53428571Y-63058333D01*
X53333333Y-63010714D01*
X53190476Y-63010714D01*
X53095238Y-63058333D01*
X53047619Y-63105952D01*
X53000000Y-63201190D01*
X53000000Y-63486904D01*
X53047619Y-63582142D01*
X53095238Y-63629761D01*
X53190476Y-63677380D01*
X53333333Y-63677380D01*
X52571428Y-63010714D02*
X52571428Y-63677380D01*
X52571428Y-63105952D02*
X52523809Y-63058333D01*
X52428571Y-63010714D01*
X52285714Y-63010714D01*
X52190476Y-63058333D01*
X52142857Y-63153571D01*
X52142857Y-63677380D01*
X50428571Y-63677380D02*
X50904761Y-63677380D01*
X50904761Y-62677380D01*
X49666666Y-63677380D02*
X49666666Y-63153571D01*
X49714285Y-63058333D01*
X49809523Y-63010714D01*
X50000000Y-63010714D01*
X50095238Y-63058333D01*
X49666666Y-63629761D02*
X49761904Y-63677380D01*
X50000000Y-63677380D01*
X50095238Y-63629761D01*
X50142857Y-63534523D01*
X50142857Y-63439285D01*
X50095238Y-63344047D01*
X50000000Y-63296428D01*
X49761904Y-63296428D01*
X49666666Y-63248809D01*
X49190476Y-63677380D02*
X49190476Y-62677380D01*
X49190476Y-63058333D02*
X49095238Y-63010714D01*
X48904761Y-63010714D01*
X48809523Y-63058333D01*
X48761904Y-63105952D01*
X48714285Y-63201190D01*
X48714285Y-63486904D01*
X48761904Y-63582142D01*
X48809523Y-63629761D01*
X48904761Y-63677380D01*
X49095238Y-63677380D01*
X49190476Y-63629761D01*
X47571428Y-62772619D02*
X47523809Y-62725000D01*
X47428571Y-62677380D01*
X47190476Y-62677380D01*
X47095238Y-62725000D01*
X47047619Y-62772619D01*
X47000000Y-62867857D01*
X47000000Y-62963095D01*
X47047619Y-63105952D01*
X47619047Y-63677380D01*
X47000000Y-63677380D01*
X46380952Y-62677380D02*
X46285714Y-62677380D01*
X46190476Y-62725000D01*
X46142857Y-62772619D01*
X46095238Y-62867857D01*
X46047619Y-63058333D01*
X46047619Y-63296428D01*
X46095238Y-63486904D01*
X46142857Y-63582142D01*
X46190476Y-63629761D01*
X46285714Y-63677380D01*
X46380952Y-63677380D01*
X46476190Y-63629761D01*
X46523809Y-63582142D01*
X46571428Y-63486904D01*
X46619047Y-63296428D01*
X46619047Y-63058333D01*
X46571428Y-62867857D01*
X46523809Y-62772619D01*
X46476190Y-62725000D01*
X46380952Y-62677380D01*
X45666666Y-62772619D02*
X45619047Y-62725000D01*
X45523809Y-62677380D01*
X45285714Y-62677380D01*
X45190476Y-62725000D01*
X45142857Y-62772619D01*
X45095238Y-62867857D01*
X45095238Y-62963095D01*
X45142857Y-63105952D01*
X45714285Y-63677380D01*
X45095238Y-63677380D01*
X44142857Y-63677380D02*
X44714285Y-63677380D01*
X44428571Y-63677380D02*
X44428571Y-62677380D01*
X44523809Y-62820238D01*
X44619047Y-62915476D01*
X44714285Y-62963095D01*
X39071428Y-48747619D02*
X39023809Y-48700000D01*
X38928571Y-48652380D01*
X38690476Y-48652380D01*
X38595238Y-48700000D01*
X38547619Y-48747619D01*
X38500000Y-48842857D01*
X38500000Y-48938095D01*
X38547619Y-49080952D01*
X39119047Y-49652380D01*
X38500000Y-49652380D01*
X37642857Y-48985714D02*
X37642857Y-49652380D01*
X37880952Y-48604761D02*
X38119047Y-49319047D01*
X37500000Y-49319047D01*
X37261904Y-48652380D02*
X36928571Y-49652380D01*
X36595238Y-48652380D01*
X38861904Y-51300000D02*
X38957142Y-51252380D01*
X39100000Y-51252380D01*
X39242857Y-51300000D01*
X39338095Y-51395238D01*
X39385714Y-51490476D01*
X39433333Y-51680952D01*
X39433333Y-51823809D01*
X39385714Y-52014285D01*
X39338095Y-52109523D01*
X39242857Y-52204761D01*
X39100000Y-52252380D01*
X39004761Y-52252380D01*
X38861904Y-52204761D01*
X38814285Y-52157142D01*
X38814285Y-51823809D01*
X39004761Y-51823809D01*
X38385714Y-52252380D02*
X38385714Y-51252380D01*
X37814285Y-52252380D01*
X37814285Y-51252380D01*
X37338095Y-52252380D02*
X37338095Y-51252380D01*
X37100000Y-51252380D01*
X36957142Y-51300000D01*
X36861904Y-51395238D01*
X36814285Y-51490476D01*
X36766666Y-51680952D01*
X36766666Y-51823809D01*
X36814285Y-52014285D01*
X36861904Y-52109523D01*
X36957142Y-52204761D01*
X37100000Y-52252380D01*
X37338095Y-52252380D01*
D11*
X33570000Y-47830000D02*
X36230000Y-47830000D01*
X33570000Y-50430000D02*
X33570000Y-47830000D01*
X36230000Y-50430000D02*
X36230000Y-47830000D01*
X33570000Y-50430000D02*
X36230000Y-50430000D01*
X33570000Y-51700000D02*
X33570000Y-53030000D01*
X33570000Y-53030000D02*
X34900000Y-53030000D01*
D10*
X35233333Y-53952380D02*
X35233333Y-54666666D01*
X35280952Y-54809523D01*
X35376190Y-54904761D01*
X35519047Y-54952380D01*
X35614285Y-54952380D01*
X34233333Y-54952380D02*
X34804761Y-54952380D01*
X34519047Y-54952380D02*
X34519047Y-53952380D01*
X34614285Y-54095238D01*
X34709523Y-54190476D01*
X34804761Y-54238095D01*
M02*
