G04 #@! TF.GenerationSoftware,KiCad,Pcbnew,5.1.9-73d0e3b20d~88~ubuntu20.10.1*
G04 #@! TF.CreationDate,2021-09-15T14:45:45-07:00*
G04 #@! TF.ProjectId,led_ring,6c65645f-7269-46e6-972e-6b696361645f,rev?*
G04 #@! TF.SameCoordinates,Original*
G04 #@! TF.FileFunction,Legend,Top*
G04 #@! TF.FilePolarity,Positive*
%FSLAX46Y46*%
G04 Gerber Fmt 4.6, Leading zero omitted, Abs format (unit mm)*
G04 Created by KiCad (PCBNEW 5.1.9-73d0e3b20d~88~ubuntu20.10.1) date 2021-09-15 14:45:45*
%MOMM*%
%LPD*%
G01*
G04 APERTURE LIST*
%ADD10C,0.150000*%
%ADD11C,0.120000*%
G04 APERTURE END LIST*
D10*
X64300000Y-50800000D02*
G75*
G03*
X64300000Y-50800000I-13500000J0D01*
G01*
X59675000Y-50800000D02*
G75*
G03*
X59675000Y-50800000I-8875000J0D01*
G01*
X38581300Y-65800000D02*
G75*
G03*
X38581300Y-65800000I-2781300J0D01*
G01*
X68581300Y-65800000D02*
G75*
G03*
X68581300Y-65800000I-2781300J0D01*
G01*
X68581300Y-35800000D02*
G75*
G03*
X68581300Y-35800000I-2781300J0D01*
G01*
X38581300Y-35800000D02*
G75*
G03*
X38581300Y-35800000I-2781300J0D01*
G01*
D11*
X62800000Y-49840000D02*
X60115000Y-49840000D01*
X60115000Y-49840000D02*
X60115000Y-51760000D01*
X60115000Y-51760000D02*
X62800000Y-51760000D01*
X59881557Y-48516209D02*
X62404632Y-47597885D01*
X59224879Y-46711999D02*
X59881557Y-48516209D01*
X61747953Y-45793675D02*
X59224879Y-46711999D01*
X59375468Y-42351110D02*
X57318639Y-44076994D01*
X57318639Y-44076994D02*
X58552791Y-45547800D01*
X58552791Y-45547800D02*
X60609621Y-43821915D01*
X56288884Y-43212953D02*
X57631384Y-40887675D01*
X54626116Y-42252953D02*
X56288884Y-43212953D01*
X55968616Y-39927675D02*
X54626116Y-42252953D01*
X51938333Y-38815590D02*
X51472087Y-41459799D01*
X51472087Y-41459799D02*
X53362918Y-41793203D01*
X53362918Y-41793203D02*
X53829164Y-39148994D01*
X50127913Y-41459799D02*
X49661667Y-38815590D01*
X48237082Y-41793203D02*
X50127913Y-41459799D01*
X47770836Y-39148994D02*
X48237082Y-41793203D01*
X43968616Y-40887675D02*
X45311116Y-43212953D01*
X45311116Y-43212953D02*
X46973884Y-42252953D01*
X46973884Y-42252953D02*
X45631384Y-39927675D01*
X44281361Y-44076994D02*
X42224532Y-42351110D01*
X43047209Y-45547800D02*
X44281361Y-44076994D01*
X40990379Y-43821915D02*
X43047209Y-45547800D01*
X39195368Y-47597885D02*
X41718443Y-48516209D01*
X41718443Y-48516209D02*
X42375121Y-46711999D01*
X42375121Y-46711999D02*
X39852047Y-45793675D01*
X41485000Y-49840000D02*
X38800000Y-49840000D01*
X41485000Y-51760000D02*
X41485000Y-49840000D01*
X38800000Y-51760000D02*
X41485000Y-51760000D01*
X39852047Y-55806325D02*
X42375121Y-54888001D01*
X42375121Y-54888001D02*
X41718443Y-53083791D01*
X41718443Y-53083791D02*
X39195368Y-54002115D01*
X43047209Y-56052200D02*
X40990379Y-57778085D01*
X44281361Y-57523006D02*
X43047209Y-56052200D01*
X42224532Y-59248890D02*
X44281361Y-57523006D01*
X45631384Y-61672325D02*
X46973884Y-59347047D01*
X46973884Y-59347047D02*
X45311116Y-58387047D01*
X45311116Y-58387047D02*
X43968616Y-60712325D01*
X48237082Y-59806797D02*
X47770836Y-62451006D01*
X50127913Y-60140201D02*
X48237082Y-59806797D01*
X49661667Y-62784410D02*
X50127913Y-60140201D01*
X53829164Y-62451006D02*
X53362918Y-59806797D01*
X53362918Y-59806797D02*
X51472087Y-60140201D01*
X51472087Y-60140201D02*
X51938333Y-62784410D01*
X54626116Y-59347047D02*
X55968616Y-61672325D01*
X56288884Y-58387047D02*
X54626116Y-59347047D01*
X57631384Y-60712325D02*
X56288884Y-58387047D01*
X60609621Y-57778085D02*
X58552791Y-56052200D01*
X58552791Y-56052200D02*
X57318639Y-57523006D01*
X57318639Y-57523006D02*
X59375468Y-59248890D01*
X59224879Y-54888001D02*
X61747953Y-55806325D01*
X59881557Y-53083791D02*
X59224879Y-54888001D01*
X62404632Y-54002115D02*
X59881557Y-53083791D01*
X42572936Y-65065000D02*
X43027064Y-65065000D01*
X42572936Y-66535000D02*
X43027064Y-66535000D01*
X42572936Y-36535000D02*
X43027064Y-36535000D01*
X42572936Y-35065000D02*
X43027064Y-35065000D01*
X65065000Y-59027064D02*
X65065000Y-58572936D01*
X66535000Y-59027064D02*
X66535000Y-58572936D01*
D10*
X61875579Y-49486814D02*
X61875579Y-48486814D01*
X62113675Y-48486814D01*
X62256532Y-48534434D01*
X62351770Y-48629672D01*
X62399389Y-48724910D01*
X62447008Y-48915386D01*
X62447008Y-49058243D01*
X62399389Y-49248719D01*
X62351770Y-49343957D01*
X62256532Y-49439195D01*
X62113675Y-49486814D01*
X61875579Y-49486814D01*
X63399389Y-49486814D02*
X62827960Y-49486814D01*
X63113675Y-49486814D02*
X63113675Y-48486814D01*
X63018436Y-48629672D01*
X62923198Y-48724910D01*
X62827960Y-48772529D01*
X60758486Y-45777959D02*
X60416466Y-44838266D01*
X60640202Y-44756833D01*
X60790731Y-44752720D01*
X60912799Y-44809641D01*
X60990119Y-44882849D01*
X61100013Y-45045552D01*
X61148873Y-45179793D01*
X61169273Y-45375069D01*
X61157099Y-45480850D01*
X61100178Y-45602918D01*
X60982223Y-45696526D01*
X60758486Y-45777959D01*
X61343985Y-44602027D02*
X61372445Y-44540993D01*
X61445653Y-44463673D01*
X61669390Y-44382240D01*
X61775171Y-44394413D01*
X61836205Y-44422874D01*
X61913525Y-44496082D01*
X61946099Y-44585576D01*
X61950211Y-44736105D01*
X61608684Y-45468512D01*
X62190399Y-45256785D01*
X58440299Y-42674759D02*
X57797511Y-41908714D01*
X57979903Y-41755670D01*
X58119946Y-41700321D01*
X58254121Y-41712060D01*
X58351817Y-41754408D01*
X58510731Y-41869712D01*
X58602558Y-41979147D01*
X58688515Y-42155669D01*
X58713255Y-42259235D01*
X58701516Y-42393409D01*
X58622690Y-42521714D01*
X58440299Y-42674759D01*
X58490599Y-41327145D02*
X58964817Y-40929229D01*
X58954340Y-41435318D01*
X59063775Y-41343491D01*
X59167341Y-41318751D01*
X59234428Y-41324621D01*
X59332124Y-41366968D01*
X59485169Y-41549360D01*
X59509908Y-41652925D01*
X59504039Y-41720013D01*
X59461691Y-41817709D01*
X59242821Y-42001362D01*
X59139256Y-42026102D01*
X59072169Y-42020233D01*
X55200538Y-40551652D02*
X54334513Y-40051652D01*
X54453560Y-39845456D01*
X54566228Y-39745547D01*
X54696326Y-39710688D01*
X54802614Y-39717067D01*
X54991381Y-39771066D01*
X55115099Y-39842495D01*
X55256247Y-39978972D01*
X55314916Y-40067831D01*
X55349775Y-40197928D01*
X55319586Y-40345456D01*
X55200538Y-40551652D01*
X55337474Y-38981140D02*
X55914824Y-39314473D01*
X54888512Y-38996860D02*
X55388054Y-39560199D01*
X55697577Y-39024088D01*
X51429990Y-39664636D02*
X50445182Y-39490987D01*
X50486527Y-39256509D01*
X50558229Y-39124091D01*
X50668559Y-39046838D01*
X50770619Y-39016480D01*
X50966470Y-39002661D01*
X51107157Y-39027468D01*
X51286470Y-39107439D01*
X51371993Y-39170873D01*
X51449246Y-39281202D01*
X51471335Y-39430158D01*
X51429990Y-39664636D01*
X50701520Y-38037224D02*
X50618830Y-38506180D01*
X51079517Y-38635765D01*
X51040891Y-38580600D01*
X51010533Y-38478540D01*
X51051878Y-38244062D01*
X51115311Y-38158540D01*
X51170476Y-38119913D01*
X51272536Y-38089555D01*
X51507014Y-38130900D01*
X51592536Y-38194334D01*
X51631163Y-38249498D01*
X51661521Y-38351559D01*
X51620176Y-38586037D01*
X51556742Y-38671559D01*
X51501578Y-38710185D01*
X46436185Y-38824046D02*
X47420993Y-38650398D01*
X47462338Y-38884876D01*
X47440249Y-39033831D01*
X47362996Y-39144160D01*
X47277474Y-39207594D01*
X47098160Y-39287565D01*
X46957473Y-39312372D01*
X46761622Y-39298553D01*
X46659562Y-39268195D01*
X46549233Y-39190942D01*
X46477530Y-39058524D01*
X46436185Y-38824046D01*
X47669062Y-40057266D02*
X47635986Y-39869683D01*
X47572553Y-39784161D01*
X47517388Y-39745534D01*
X47360163Y-39676550D01*
X47164312Y-39662730D01*
X46789147Y-39728882D01*
X46703625Y-39792316D01*
X46664998Y-39847480D01*
X46634640Y-39949540D01*
X46667716Y-40137123D01*
X46731150Y-40222645D01*
X46786314Y-40261272D01*
X46888375Y-40291629D01*
X47122853Y-40250285D01*
X47208375Y-40186851D01*
X47247001Y-40131686D01*
X47277359Y-40029626D01*
X47244283Y-39842044D01*
X47180850Y-39756522D01*
X47125685Y-39717895D01*
X47023625Y-39687537D01*
X42603315Y-41038800D02*
X43469341Y-40538800D01*
X43588389Y-40744996D01*
X43618578Y-40892524D01*
X43583718Y-41022621D01*
X43525049Y-41111480D01*
X43383901Y-41247957D01*
X43260184Y-41319386D01*
X43071417Y-41373384D01*
X42965129Y-41379764D01*
X42835031Y-41344905D01*
X42722363Y-41244996D01*
X42603315Y-41038800D01*
X43921722Y-41322347D02*
X44255055Y-41899697D01*
X43174744Y-42028543D01*
X39759105Y-44430886D02*
X40401892Y-43664841D01*
X40584284Y-43817886D01*
X40663110Y-43946191D01*
X40674849Y-44080366D01*
X40650109Y-44183931D01*
X40564152Y-44360453D01*
X40472325Y-44469888D01*
X40313411Y-44585193D01*
X40215715Y-44627540D01*
X40081540Y-44639279D01*
X39941496Y-44583931D01*
X39759105Y-44430886D01*
X41001891Y-44727761D02*
X40959544Y-44630064D01*
X40953674Y-44562977D01*
X40978414Y-44459412D01*
X41009023Y-44422933D01*
X41106719Y-44380586D01*
X41173806Y-44374716D01*
X41277372Y-44399456D01*
X41423285Y-44521892D01*
X41465633Y-44619588D01*
X41471502Y-44686675D01*
X41446763Y-44790241D01*
X41416154Y-44826719D01*
X41318457Y-44869067D01*
X41251370Y-44874936D01*
X41147805Y-44850196D01*
X41001891Y-44727761D01*
X40898326Y-44703021D01*
X40831239Y-44708890D01*
X40733542Y-44751238D01*
X40611107Y-44897151D01*
X40586367Y-45000717D01*
X40592237Y-45067804D01*
X40634584Y-45165500D01*
X40780497Y-45287936D01*
X40884063Y-45312676D01*
X40951150Y-45306806D01*
X41048846Y-45264459D01*
X41171282Y-45118545D01*
X41196022Y-45014980D01*
X41190152Y-44947893D01*
X41147805Y-44850196D01*
X38246628Y-48591249D02*
X38588649Y-47651556D01*
X38812385Y-47732990D01*
X38930340Y-47826597D01*
X38987261Y-47948665D01*
X38999435Y-48054446D01*
X38979036Y-48249722D01*
X38930176Y-48383964D01*
X38820282Y-48546666D01*
X38742961Y-48619874D01*
X38620893Y-48676795D01*
X38470365Y-48672682D01*
X38246628Y-48591249D01*
X39231068Y-48949556D02*
X39410057Y-49014703D01*
X39515839Y-49002529D01*
X39576873Y-48974068D01*
X39715227Y-48872400D01*
X39825121Y-48709697D01*
X39955414Y-48351719D01*
X39943241Y-48245938D01*
X39914780Y-48184904D01*
X39841572Y-48107583D01*
X39662583Y-48042437D01*
X39556802Y-48054611D01*
X39495768Y-48083071D01*
X39418447Y-48156279D01*
X39337014Y-48380015D01*
X39349188Y-48485797D01*
X39377648Y-48546831D01*
X39450856Y-48624151D01*
X39629845Y-48689298D01*
X39735627Y-48677124D01*
X39796660Y-48648663D01*
X39873981Y-48575455D01*
X37772038Y-53017945D02*
X37772038Y-52017945D01*
X38010133Y-52017945D01*
X38152990Y-52065565D01*
X38248228Y-52160803D01*
X38295847Y-52256041D01*
X38343466Y-52446517D01*
X38343466Y-52589374D01*
X38295847Y-52779850D01*
X38248228Y-52875088D01*
X38152990Y-52970326D01*
X38010133Y-53017945D01*
X37772038Y-53017945D01*
X39295847Y-53017945D02*
X38724419Y-53017945D01*
X39010133Y-53017945D02*
X39010133Y-52017945D01*
X38914895Y-52160803D01*
X38819657Y-52256041D01*
X38724419Y-52303660D01*
X39914895Y-52017945D02*
X40010133Y-52017945D01*
X40105371Y-52065565D01*
X40152990Y-52113184D01*
X40200609Y-52208422D01*
X40248228Y-52398898D01*
X40248228Y-52636993D01*
X40200609Y-52827469D01*
X40152990Y-52922707D01*
X40105371Y-52970326D01*
X40010133Y-53017945D01*
X39914895Y-53017945D01*
X39819657Y-52970326D01*
X39772038Y-52922707D01*
X39724419Y-52827469D01*
X39676800Y-52636993D01*
X39676800Y-52398898D01*
X39724419Y-52208422D01*
X39772038Y-52113184D01*
X39819657Y-52065565D01*
X39914895Y-52017945D01*
X39316322Y-57339992D02*
X38974301Y-56400299D01*
X39198038Y-56318866D01*
X39348566Y-56314753D01*
X39470634Y-56371674D01*
X39547955Y-56444882D01*
X39657849Y-56607584D01*
X39706709Y-56741826D01*
X39727108Y-56937102D01*
X39714934Y-57042883D01*
X39658013Y-57164951D01*
X39540058Y-57258558D01*
X39316322Y-57339992D01*
X40748234Y-56818818D02*
X40211267Y-57014258D01*
X40479751Y-56916538D02*
X40137730Y-55976846D01*
X40097096Y-56143661D01*
X40040175Y-56265729D01*
X39966967Y-56343049D01*
X41643179Y-56493085D02*
X41106212Y-56688525D01*
X41374696Y-56590805D02*
X41032676Y-55651112D01*
X40992041Y-55817927D01*
X40935120Y-55939995D01*
X40861912Y-56017316D01*
X42245660Y-60873294D02*
X41602872Y-60107250D01*
X41785263Y-59954205D01*
X41925307Y-59898857D01*
X42059482Y-59910595D01*
X42157178Y-59952943D01*
X42316092Y-60068247D01*
X42407919Y-60177682D01*
X42493876Y-60354204D01*
X42518616Y-60457770D01*
X42506877Y-60591944D01*
X42428051Y-60720250D01*
X42245660Y-60873294D01*
X43412965Y-59893808D02*
X42975226Y-60261116D01*
X43194096Y-60077462D02*
X42551308Y-59311418D01*
X42570178Y-59482070D01*
X42558439Y-59616245D01*
X42516092Y-59713941D01*
X43123222Y-58955849D02*
X43129091Y-58888762D01*
X43171439Y-58791066D01*
X43353831Y-58638021D01*
X43457396Y-58613281D01*
X43524483Y-58619151D01*
X43622180Y-58661498D01*
X43683397Y-58734455D01*
X43738746Y-58874499D01*
X43668314Y-59679546D01*
X44142532Y-59281630D01*
X46206817Y-63191539D02*
X45340792Y-62691539D01*
X45459839Y-62485343D01*
X45572507Y-62385434D01*
X45702605Y-62350575D01*
X45808893Y-62356955D01*
X45997660Y-62410953D01*
X46121378Y-62482382D01*
X46262525Y-62618859D01*
X46321194Y-62707718D01*
X46356054Y-62837815D01*
X46325865Y-62985343D01*
X46206817Y-63191539D01*
X46968722Y-61871881D02*
X46683008Y-62366753D01*
X46825865Y-62119317D02*
X45959839Y-61619317D01*
X46035938Y-61773225D01*
X46070798Y-61903322D01*
X46064418Y-62009610D01*
X46269363Y-61083206D02*
X46578887Y-60547095D01*
X46742135Y-61026247D01*
X46813563Y-60902529D01*
X46902422Y-60843860D01*
X46967470Y-60826430D01*
X47073759Y-60832810D01*
X47279955Y-60951857D01*
X47338624Y-61040716D01*
X47356054Y-61105764D01*
X47349674Y-61212053D01*
X47206817Y-61459488D01*
X47117959Y-61518158D01*
X47052910Y-61535587D01*
X50721998Y-64015194D02*
X49737191Y-63841545D01*
X49778535Y-63607067D01*
X49850238Y-63474650D01*
X49960567Y-63397396D01*
X50062627Y-63367039D01*
X50258479Y-63353219D01*
X50399165Y-63378026D01*
X50578479Y-63457997D01*
X50664001Y-63521431D01*
X50741254Y-63631760D01*
X50763343Y-63780716D01*
X50721998Y-64015194D01*
X50986605Y-62514534D02*
X50887377Y-63077281D01*
X50936991Y-62795908D02*
X49952183Y-62622260D01*
X50076332Y-62740858D01*
X50153586Y-62851187D01*
X50183943Y-62953247D01*
X50478908Y-61554648D02*
X51135446Y-61670413D01*
X50062398Y-61722974D02*
X50724487Y-62081487D01*
X50831984Y-61471844D01*
X53933770Y-61010344D02*
X54918577Y-60836695D01*
X54959922Y-61071174D01*
X54937834Y-61220129D01*
X54860580Y-61330458D01*
X54775058Y-61393892D01*
X54595745Y-61473863D01*
X54455058Y-61498670D01*
X54259206Y-61484851D01*
X54157146Y-61454493D01*
X54046817Y-61377240D01*
X53975115Y-61244822D01*
X53933770Y-61010344D01*
X54198376Y-62511003D02*
X54099149Y-61948256D01*
X54148763Y-62229629D02*
X55133570Y-62055981D01*
X54976346Y-61986997D01*
X54866017Y-61909744D01*
X54802583Y-61824221D01*
X55340294Y-63228371D02*
X55257605Y-62759415D01*
X54780380Y-62795209D01*
X54835544Y-62833836D01*
X54898978Y-62919358D01*
X54940323Y-63153836D01*
X54909965Y-63255896D01*
X54871338Y-63311061D01*
X54785816Y-63374495D01*
X54551338Y-63415839D01*
X54449278Y-63385482D01*
X54394113Y-63346855D01*
X54330680Y-63261333D01*
X54289335Y-63026855D01*
X54319693Y-62924795D01*
X54358319Y-62869630D01*
X57236945Y-59322769D02*
X58102971Y-58822769D01*
X58222018Y-59028965D01*
X58252208Y-59176493D01*
X58217348Y-59306590D01*
X58158679Y-59395449D01*
X58017531Y-59531926D01*
X57893813Y-59603355D01*
X57705047Y-59657353D01*
X57598758Y-59663733D01*
X57468661Y-59628874D01*
X57355993Y-59528965D01*
X57236945Y-59322769D01*
X57998850Y-60642426D02*
X57713136Y-60147555D01*
X57855993Y-60394991D02*
X58722018Y-59894991D01*
X58550681Y-59883941D01*
X58420584Y-59849081D01*
X58331725Y-59790412D01*
X59293447Y-60884734D02*
X59198209Y-60719777D01*
X59109350Y-60661108D01*
X59044302Y-60643678D01*
X58872965Y-60632628D01*
X58684198Y-60686627D01*
X58354283Y-60877103D01*
X58295614Y-60965961D01*
X58278185Y-61031010D01*
X58284564Y-61137298D01*
X58379802Y-61302255D01*
X58468661Y-61360924D01*
X58533710Y-61378354D01*
X58639998Y-61371974D01*
X58846194Y-61252927D01*
X58904863Y-61164068D01*
X58922293Y-61099020D01*
X58915913Y-60992732D01*
X58820675Y-60827774D01*
X58731817Y-60769105D01*
X58666768Y-60751675D01*
X58560480Y-60758055D01*
X59763714Y-56607235D02*
X60406501Y-55841190D01*
X60588893Y-55994235D01*
X60667719Y-56122540D01*
X60679458Y-56256714D01*
X60654718Y-56360280D01*
X60568761Y-56536802D01*
X60476934Y-56646237D01*
X60318020Y-56761541D01*
X60220324Y-56803889D01*
X60086149Y-56815628D01*
X59946105Y-56760279D01*
X59763714Y-56607235D01*
X60931020Y-57586720D02*
X60493280Y-57219413D01*
X60712150Y-57403067D02*
X61354937Y-56637022D01*
X61190154Y-56685239D01*
X61055979Y-56696978D01*
X60952414Y-56672239D01*
X61829155Y-57034939D02*
X62339852Y-57463464D01*
X61368759Y-57954028D01*
X61209286Y-53191194D02*
X61551306Y-52251502D01*
X61775042Y-52332935D01*
X61892997Y-52426542D01*
X61949919Y-52548610D01*
X61962092Y-52654391D01*
X61941693Y-52849667D01*
X61892833Y-52983909D01*
X61782939Y-53146611D01*
X61705618Y-53219819D01*
X61583551Y-53276740D01*
X61433022Y-53272628D01*
X61209286Y-53191194D01*
X62641198Y-53712368D02*
X62104231Y-53516928D01*
X62372715Y-53614648D02*
X62714735Y-52674955D01*
X62576380Y-52776624D01*
X62454312Y-52833545D01*
X62348531Y-52845719D01*
X63373606Y-53370841D02*
X63300398Y-53293520D01*
X63271937Y-53232486D01*
X63259763Y-53126705D01*
X63276050Y-53081958D01*
X63353371Y-53008750D01*
X63414404Y-52980289D01*
X63520186Y-52968115D01*
X63699175Y-53033262D01*
X63772383Y-53110583D01*
X63800843Y-53171617D01*
X63813017Y-53277398D01*
X63796730Y-53322145D01*
X63719410Y-53395353D01*
X63658376Y-53423814D01*
X63552595Y-53435987D01*
X63373606Y-53370841D01*
X63267824Y-53383015D01*
X63206790Y-53411475D01*
X63129470Y-53484683D01*
X63064323Y-53663672D01*
X63076497Y-53769453D01*
X63104958Y-53830487D01*
X63178166Y-53907808D01*
X63357155Y-53972955D01*
X63462936Y-53960781D01*
X63523970Y-53932320D01*
X63601290Y-53859112D01*
X63666437Y-53680123D01*
X63654263Y-53574342D01*
X63625803Y-53513308D01*
X63552595Y-53435987D01*
X42633333Y-64602380D02*
X42300000Y-64126190D01*
X42061904Y-64602380D02*
X42061904Y-63602380D01*
X42442857Y-63602380D01*
X42538095Y-63650000D01*
X42585714Y-63697619D01*
X42633333Y-63792857D01*
X42633333Y-63935714D01*
X42585714Y-64030952D01*
X42538095Y-64078571D01*
X42442857Y-64126190D01*
X42061904Y-64126190D01*
X43585714Y-64602380D02*
X43014285Y-64602380D01*
X43300000Y-64602380D02*
X43300000Y-63602380D01*
X43204761Y-63745238D01*
X43109523Y-63840476D01*
X43014285Y-63888095D01*
X42633333Y-34602380D02*
X42300000Y-34126190D01*
X42061904Y-34602380D02*
X42061904Y-33602380D01*
X42442857Y-33602380D01*
X42538095Y-33650000D01*
X42585714Y-33697619D01*
X42633333Y-33792857D01*
X42633333Y-33935714D01*
X42585714Y-34030952D01*
X42538095Y-34078571D01*
X42442857Y-34126190D01*
X42061904Y-34126190D01*
X43014285Y-33697619D02*
X43061904Y-33650000D01*
X43157142Y-33602380D01*
X43395238Y-33602380D01*
X43490476Y-33650000D01*
X43538095Y-33697619D01*
X43585714Y-33792857D01*
X43585714Y-33888095D01*
X43538095Y-34030952D01*
X42966666Y-34602380D01*
X43585714Y-34602380D01*
X64602380Y-58966666D02*
X64126190Y-59300000D01*
X64602380Y-59538095D02*
X63602380Y-59538095D01*
X63602380Y-59157142D01*
X63650000Y-59061904D01*
X63697619Y-59014285D01*
X63792857Y-58966666D01*
X63935714Y-58966666D01*
X64030952Y-59014285D01*
X64078571Y-59061904D01*
X64126190Y-59157142D01*
X64126190Y-59538095D01*
X63602380Y-58633333D02*
X63602380Y-58014285D01*
X63983333Y-58347619D01*
X63983333Y-58204761D01*
X64030952Y-58109523D01*
X64078571Y-58061904D01*
X64173809Y-58014285D01*
X64411904Y-58014285D01*
X64507142Y-58061904D01*
X64554761Y-58109523D01*
X64602380Y-58204761D01*
X64602380Y-58490476D01*
X64554761Y-58585714D01*
X64507142Y-58633333D01*
M02*
